<mxfile host="app.diagrams.net" modified="2024-06-25T17:24:37.667Z" agent="Mozilla/5.0 (Windows NT 10.0; Win64; x64; rv:127.0) Gecko/20100101 Firefox/127.0" etag="znCQjU7C5_H6brzNBolj" scale="1" border="0" version="24.6.3" type="onedrive">
  <diagram name="Seite-1" id="BdwV5UMT7EBT8y160Mmd">
    <mxGraphModel grid="1" page="1" gridSize="10" guides="1" tooltips="1" connect="1" arrows="1" fold="1" pageScale="1" pageWidth="827" pageHeight="1169" math="0" shadow="0">
      <root>
        <mxCell id="0" />
        <mxCell id="1" parent="0" />
        <mxCell id="s5RyafOtIJQ5emFlyJau-1" value="Cloud-Pizzasystem" style="html=1;whiteSpace=wrap;" vertex="1" parent="1">
          <mxGeometry x="265" y="265" width="190" height="90" as="geometry" />
        </mxCell>
        <mxCell id="s5RyafOtIJQ5emFlyJau-3" style="rounded=0;orthogonalLoop=1;jettySize=auto;html=1;" edge="1" parent="1" source="s5RyafOtIJQ5emFlyJau-2" target="s5RyafOtIJQ5emFlyJau-1">
          <mxGeometry relative="1" as="geometry" />
        </mxCell>
        <mxCell id="lO7G2VDPy5OUGdGKUhzF-1" value="&lt;div&gt;Deployment&lt;/div&gt;&lt;div&gt;Cloudumgebung&lt;br&gt;&lt;/div&gt;" style="edgeLabel;html=1;align=center;verticalAlign=middle;resizable=0;points=[];" vertex="1" connectable="0" parent="s5RyafOtIJQ5emFlyJau-3">
          <mxGeometry x="0.0154" relative="1" as="geometry">
            <mxPoint as="offset" />
          </mxGeometry>
        </mxCell>
        <mxCell id="s5RyafOtIJQ5emFlyJau-2" value="Entwickler" style="shape=umlActor;verticalLabelPosition=bottom;verticalAlign=top;html=1;" vertex="1" parent="1">
          <mxGeometry x="80" y="280" width="30" height="60" as="geometry" />
        </mxCell>
        <mxCell id="s5RyafOtIJQ5emFlyJau-6" style="rounded=0;orthogonalLoop=1;jettySize=auto;html=1;startArrow=classic;startFill=1;" edge="1" parent="1" source="s5RyafOtIJQ5emFlyJau-5" target="s5RyafOtIJQ5emFlyJau-1">
          <mxGeometry relative="1" as="geometry" />
        </mxCell>
        <mxCell id="s5RyafOtIJQ5emFlyJau-12" value="&lt;div&gt;Bestellauftrag,&lt;/div&gt;&lt;div&gt;Produkte erstellen&lt;br&gt;&lt;/div&gt;" style="edgeLabel;html=1;align=center;verticalAlign=middle;resizable=0;points=[];" vertex="1" connectable="0" parent="s5RyafOtIJQ5emFlyJau-6">
          <mxGeometry relative="1" as="geometry">
            <mxPoint as="offset" />
          </mxGeometry>
        </mxCell>
        <mxCell id="s5RyafOtIJQ5emFlyJau-5" value="Nutzer" style="shape=umlActor;verticalLabelPosition=bottom;verticalAlign=top;html=1;" vertex="1" parent="1">
          <mxGeometry x="630" y="280" width="30" height="60" as="geometry" />
        </mxCell>
        <mxCell id="s5RyafOtIJQ5emFlyJau-9" style="rounded=0;orthogonalLoop=1;jettySize=auto;html=1;startArrow=none;startFill=0;endArrow=classic;endFill=1;" edge="1" parent="1" source="s5RyafOtIJQ5emFlyJau-8" target="s5RyafOtIJQ5emFlyJau-1">
          <mxGeometry relative="1" as="geometry" />
        </mxCell>
        <mxCell id="s5RyafOtIJQ5emFlyJau-11" value="Image-Bereitstellung" style="edgeLabel;html=1;align=center;verticalAlign=middle;resizable=0;points=[];" vertex="1" connectable="0" parent="s5RyafOtIJQ5emFlyJau-9">
          <mxGeometry x="-0.0222" y="-1" relative="1" as="geometry">
            <mxPoint as="offset" />
          </mxGeometry>
        </mxCell>
        <mxCell id="s5RyafOtIJQ5emFlyJau-8" value="Container Registry" style="html=1;whiteSpace=wrap;" vertex="1" parent="1">
          <mxGeometry x="305" y="460" width="110" height="50" as="geometry" />
        </mxCell>
        <mxCell id="lO7G2VDPy5OUGdGKUhzF-2" style="rounded=0;orthogonalLoop=1;jettySize=auto;html=1;" edge="1" parent="1" target="s5RyafOtIJQ5emFlyJau-8">
          <mxGeometry relative="1" as="geometry">
            <mxPoint x="110" y="310" as="sourcePoint" />
            <mxPoint x="295" y="484.5" as="targetPoint" />
          </mxGeometry>
        </mxCell>
        <mxCell id="lO7G2VDPy5OUGdGKUhzF-3" value="&lt;div&gt;Deployment&lt;/div&gt;&lt;div&gt;Apps als Image&lt;br&gt;&lt;/div&gt;" style="edgeLabel;html=1;align=center;verticalAlign=middle;resizable=0;points=[];" vertex="1" connectable="0" parent="lO7G2VDPy5OUGdGKUhzF-2">
          <mxGeometry x="0.0154" relative="1" as="geometry">
            <mxPoint as="offset" />
          </mxGeometry>
        </mxCell>
        <mxCell id="lVA4xEMguQd_Ymw6o-Ln-2" value="" style="group" connectable="0" vertex="1" parent="1">
          <mxGeometry x="70" y="500" width="195" height="60" as="geometry" />
        </mxCell>
        <mxCell id="lO7G2VDPy5OUGdGKUhzF-4" value="&lt;b&gt;Legende&lt;/b&gt;" style="rounded=0;whiteSpace=wrap;html=1;align=left;verticalAlign=top;" vertex="1" parent="lVA4xEMguQd_Ymw6o-Ln-2">
          <mxGeometry width="195" height="60" as="geometry" />
        </mxCell>
        <mxCell id="lO7G2VDPy5OUGdGKUhzF-5" style="rounded=0;orthogonalLoop=1;jettySize=auto;html=1;" edge="1" parent="lVA4xEMguQd_Ymw6o-Ln-2">
          <mxGeometry relative="1" as="geometry">
            <mxPoint x="20" y="40" as="sourcePoint" />
            <mxPoint x="175" y="40" as="targetPoint" />
          </mxGeometry>
        </mxCell>
        <mxCell id="lO7G2VDPy5OUGdGKUhzF-6" value="Datenfluss" style="edgeLabel;html=1;align=center;verticalAlign=middle;resizable=0;points=[];" vertex="1" connectable="0" parent="lO7G2VDPy5OUGdGKUhzF-5">
          <mxGeometry x="0.0154" relative="1" as="geometry">
            <mxPoint x="-1" y="-10" as="offset" />
          </mxGeometry>
        </mxCell>
      </root>
    </mxGraphModel>
  </diagram>
</mxfile>
